<mxfile host="app.diagrams.net" modified="2024-06-24T18:30:43.500Z" agent="Mozilla/5.0 (Windows NT 10.0; Win64; x64) AppleWebKit/537.36 (KHTML, like Gecko) Chrome/126.0.0.0 Safari/537.36" etag="15Grjh_ySQy--MMynKKN" version="24.6.2" type="device">
  <diagram name="Strona-1" id="C6F8DN4rWIe8_mN01hip">
    <mxGraphModel dx="1518" dy="614" grid="1" gridSize="10" guides="1" tooltips="1" connect="1" arrows="1" fold="1" page="1" pageScale="1" pageWidth="827" pageHeight="1169" math="0" shadow="0">
      <root>
        <mxCell id="0" />
        <mxCell id="1" parent="0" />
        <mxCell id="KwywT63xRmN-frbp42h7-1" value="&lt;b&gt;package &lt;/b&gt;Content Diagram" style="shape=umlFrame;whiteSpace=wrap;html=1;pointerEvents=0;recursiveResize=0;container=1;collapsible=0;width=160;" vertex="1" parent="1">
          <mxGeometry x="50" y="40" width="930" height="500" as="geometry" />
        </mxCell>
        <mxCell id="KwywT63xRmN-frbp42h7-31" value="" style="endArrow=none;html=1;rounded=0;exitX=0.5;exitY=0;exitDx=0;exitDy=0;" edge="1" parent="KwywT63xRmN-frbp42h7-1" source="KwywT63xRmN-frbp42h7-8">
          <mxGeometry width="50" height="50" relative="1" as="geometry">
            <mxPoint x="339.5" y="250" as="sourcePoint" />
            <mxPoint x="339.5" y="131" as="targetPoint" />
          </mxGeometry>
        </mxCell>
        <mxCell id="KwywT63xRmN-frbp42h7-7" value="" style="group" vertex="1" connectable="0" parent="KwywT63xRmN-frbp42h7-1">
          <mxGeometry x="250" y="210" width="180" height="130" as="geometry" />
        </mxCell>
        <mxCell id="KwywT63xRmN-frbp42h7-8" value="Offer &amp;lt;&amp;lt;page&amp;gt;&amp;gt;" style="rounded=0;whiteSpace=wrap;html=1;" vertex="1" parent="KwywT63xRmN-frbp42h7-7">
          <mxGeometry width="180" height="20" as="geometry" />
        </mxCell>
        <mxCell id="KwywT63xRmN-frbp42h7-9" value="" style="rounded=0;whiteSpace=wrap;html=1;align=left;" vertex="1" parent="KwywT63xRmN-frbp42h7-7">
          <mxGeometry y="20" width="180" height="100" as="geometry" />
        </mxCell>
        <mxCell id="KwywT63xRmN-frbp42h7-10" value="&lt;span style=&quot;&quot;&gt;title: Text&lt;/span&gt;&lt;div style=&quot;&quot;&gt;authon: Text&lt;/div&gt;&lt;div style=&quot;&quot;&gt;Description: Text&lt;/div&gt;&lt;div style=&quot;&quot;&gt;home: Anchor&lt;/div&gt;&lt;div style=&quot;&quot;&gt;exchange: Anchor&lt;/div&gt;" style="text;html=1;align=left;verticalAlign=middle;whiteSpace=wrap;rounded=0;" vertex="1" parent="KwywT63xRmN-frbp42h7-7">
          <mxGeometry x="17" y="10" width="146" height="120" as="geometry" />
        </mxCell>
        <mxCell id="KwywT63xRmN-frbp42h7-2" value="Bookswap home &amp;lt;&amp;lt;page&amp;gt;&amp;gt;" style="rounded=0;whiteSpace=wrap;html=1;" vertex="1" parent="KwywT63xRmN-frbp42h7-1">
          <mxGeometry x="295" y="30" width="180" height="20" as="geometry" />
        </mxCell>
        <mxCell id="KwywT63xRmN-frbp42h7-3" value="" style="rounded=0;whiteSpace=wrap;html=1;align=left;" vertex="1" parent="KwywT63xRmN-frbp42h7-1">
          <mxGeometry x="295" y="50" width="180" height="80" as="geometry" />
        </mxCell>
        <mxCell id="KwywT63xRmN-frbp42h7-26" value="&lt;span style=&quot;&quot;&gt;about us: Anchor&lt;/span&gt;&lt;div style=&quot;&quot;&gt;sign ip: Anchor&lt;/div&gt;&lt;div style=&quot;&quot;&gt;offer: Anchor&lt;/div&gt;&lt;div style=&quot;&quot;&gt;my profile: Anchor&lt;/div&gt;" style="text;html=1;align=left;verticalAlign=middle;whiteSpace=wrap;rounded=0;" vertex="1" parent="KwywT63xRmN-frbp42h7-1">
          <mxGeometry x="312" y="50" width="140" height="80" as="geometry" />
        </mxCell>
        <mxCell id="KwywT63xRmN-frbp42h7-17" value="About Us &amp;lt;&amp;lt;page&amp;gt;&amp;gt;" style="rounded=0;whiteSpace=wrap;html=1;" vertex="1" parent="KwywT63xRmN-frbp42h7-1">
          <mxGeometry x="30" y="160" width="180" height="20" as="geometry" />
        </mxCell>
        <mxCell id="KwywT63xRmN-frbp42h7-18" value="" style="rounded=0;whiteSpace=wrap;html=1;align=left;" vertex="1" parent="KwywT63xRmN-frbp42h7-1">
          <mxGeometry x="30" y="180" width="180" height="60" as="geometry" />
        </mxCell>
        <mxCell id="KwywT63xRmN-frbp42h7-19" value="text: Text&lt;div&gt;home: Anchor&lt;/div&gt;" style="text;html=1;align=left;verticalAlign=middle;whiteSpace=wrap;rounded=0;" vertex="1" parent="KwywT63xRmN-frbp42h7-1">
          <mxGeometry x="47" y="170" width="146" height="80" as="geometry" />
        </mxCell>
        <mxCell id="KwywT63xRmN-frbp42h7-20" value="My Profile &amp;lt;&amp;lt;page&amp;gt;&amp;gt;" style="rounded=0;whiteSpace=wrap;html=1;" vertex="1" parent="KwywT63xRmN-frbp42h7-1">
          <mxGeometry x="390" y="360" width="180" height="20" as="geometry" />
        </mxCell>
        <mxCell id="KwywT63xRmN-frbp42h7-21" value="" style="rounded=0;whiteSpace=wrap;html=1;align=left;" vertex="1" parent="KwywT63xRmN-frbp42h7-1">
          <mxGeometry x="390" y="380" width="180" height="60" as="geometry" />
        </mxCell>
        <mxCell id="KwywT63xRmN-frbp42h7-22" value="books: List&lt;div&gt;image: Image&lt;/div&gt;&lt;div&gt;home: Anchor&lt;/div&gt;" style="text;html=1;align=left;verticalAlign=middle;whiteSpace=wrap;rounded=0;" vertex="1" parent="KwywT63xRmN-frbp42h7-1">
          <mxGeometry x="407" y="370" width="146" height="80" as="geometry" />
        </mxCell>
        <mxCell id="KwywT63xRmN-frbp42h7-23" value="Exchange &amp;lt;&amp;lt;page&amp;gt;&amp;gt;" style="rounded=0;whiteSpace=wrap;html=1;" vertex="1" parent="KwywT63xRmN-frbp42h7-1">
          <mxGeometry x="47" y="360" width="180" height="20" as="geometry" />
        </mxCell>
        <mxCell id="KwywT63xRmN-frbp42h7-24" value="" style="rounded=0;whiteSpace=wrap;html=1;align=left;" vertex="1" parent="KwywT63xRmN-frbp42h7-1">
          <mxGeometry x="47" y="380" width="180" height="60" as="geometry" />
        </mxCell>
        <mxCell id="KwywT63xRmN-frbp42h7-25" value="text: Text&lt;div&gt;home: Anchor&lt;/div&gt;" style="text;html=1;align=left;verticalAlign=middle;whiteSpace=wrap;rounded=0;" vertex="1" parent="KwywT63xRmN-frbp42h7-1">
          <mxGeometry x="64" y="370" width="146" height="80" as="geometry" />
        </mxCell>
        <mxCell id="KwywT63xRmN-frbp42h7-14" value="Control Panel &amp;lt;&amp;lt;page&amp;gt;&amp;gt;" style="rounded=0;whiteSpace=wrap;html=1;" vertex="1" parent="KwywT63xRmN-frbp42h7-1">
          <mxGeometry x="713" y="35" width="180" height="20" as="geometry" />
        </mxCell>
        <mxCell id="KwywT63xRmN-frbp42h7-15" value="" style="rounded=0;whiteSpace=wrap;html=1;align=left;" vertex="1" parent="KwywT63xRmN-frbp42h7-1">
          <mxGeometry x="713" y="55" width="180" height="80" as="geometry" />
        </mxCell>
        <mxCell id="KwywT63xRmN-frbp42h7-16" value="problems: Text&lt;div&gt;status: Selection&lt;/div&gt;&lt;div&gt;activities_description: Text&lt;/div&gt;&lt;div&gt;home: Anchor&lt;/div&gt;" style="text;html=1;align=left;verticalAlign=middle;whiteSpace=wrap;rounded=0;" vertex="1" parent="KwywT63xRmN-frbp42h7-1">
          <mxGeometry x="730" y="45" width="146" height="100" as="geometry" />
        </mxCell>
        <mxCell id="KwywT63xRmN-frbp42h7-11" value="Sign In &amp;lt;&amp;lt;page&amp;gt;&amp;gt;" style="rounded=0;whiteSpace=wrap;html=1;" vertex="1" parent="KwywT63xRmN-frbp42h7-1">
          <mxGeometry x="480" y="160" width="180" height="20" as="geometry" />
        </mxCell>
        <mxCell id="KwywT63xRmN-frbp42h7-12" value="" style="rounded=0;whiteSpace=wrap;html=1;align=left;" vertex="1" parent="KwywT63xRmN-frbp42h7-1">
          <mxGeometry x="480" y="180" width="180" height="60" as="geometry" />
        </mxCell>
        <mxCell id="KwywT63xRmN-frbp42h7-13" value="user: Text&lt;div&gt;password: Text[2]&lt;/div&gt;&lt;div&gt;home: Anchor&lt;/div&gt;" style="text;html=1;align=left;verticalAlign=middle;whiteSpace=wrap;rounded=0;" vertex="1" parent="KwywT63xRmN-frbp42h7-1">
          <mxGeometry x="497" y="170" width="146" height="80" as="geometry" />
        </mxCell>
        <mxCell id="KwywT63xRmN-frbp42h7-4" value="Sign Up &amp;lt;&amp;lt;page&amp;gt;&amp;gt;" style="rounded=0;whiteSpace=wrap;html=1;" vertex="1" parent="KwywT63xRmN-frbp42h7-1">
          <mxGeometry x="730" y="230" width="180" height="20" as="geometry" />
        </mxCell>
        <mxCell id="KwywT63xRmN-frbp42h7-5" value="" style="rounded=0;whiteSpace=wrap;html=1;align=left;" vertex="1" parent="KwywT63xRmN-frbp42h7-1">
          <mxGeometry x="730" y="250" width="180" height="60" as="geometry" />
        </mxCell>
        <mxCell id="KwywT63xRmN-frbp42h7-6" value="email: Text&lt;div&gt;password: Text[2]&lt;/div&gt;&lt;div&gt;home: Anchor&lt;/div&gt;" style="text;html=1;align=left;verticalAlign=middle;whiteSpace=wrap;rounded=0;" vertex="1" parent="KwywT63xRmN-frbp42h7-1">
          <mxGeometry x="747" y="240" width="146" height="80" as="geometry" />
        </mxCell>
        <mxCell id="KwywT63xRmN-frbp42h7-28" value="" style="endArrow=diamondThin;endFill=1;endSize=24;html=1;rounded=0;entryX=0.002;entryY=0.391;entryDx=0;entryDy=0;entryPerimeter=0;exitX=0.5;exitY=0;exitDx=0;exitDy=0;" edge="1" parent="KwywT63xRmN-frbp42h7-1" source="KwywT63xRmN-frbp42h7-17" target="KwywT63xRmN-frbp42h7-3">
          <mxGeometry width="160" relative="1" as="geometry">
            <mxPoint x="80" y="80" as="sourcePoint" />
            <mxPoint x="240" y="80" as="targetPoint" />
            <Array as="points">
              <mxPoint x="120" y="80" />
            </Array>
          </mxGeometry>
        </mxCell>
        <mxCell id="KwywT63xRmN-frbp42h7-29" value="1" style="text;html=1;align=center;verticalAlign=middle;whiteSpace=wrap;rounded=0;" vertex="1" parent="KwywT63xRmN-frbp42h7-1">
          <mxGeometry x="100" y="130" width="60" height="30" as="geometry" />
        </mxCell>
        <mxCell id="KwywT63xRmN-frbp42h7-33" value="" style="endArrow=none;html=1;rounded=0;exitX=0.75;exitY=0;exitDx=0;exitDy=0;entryX=0;entryY=0.5;entryDx=0;entryDy=0;" edge="1" parent="KwywT63xRmN-frbp42h7-1" source="KwywT63xRmN-frbp42h7-11" target="KwywT63xRmN-frbp42h7-15">
          <mxGeometry width="50" height="50" relative="1" as="geometry">
            <mxPoint x="600" y="130" as="sourcePoint" />
            <mxPoint x="650" y="80" as="targetPoint" />
            <Array as="points">
              <mxPoint x="615" y="95" />
            </Array>
          </mxGeometry>
        </mxCell>
        <mxCell id="KwywT63xRmN-frbp42h7-34" value="" style="endArrow=none;html=1;rounded=0;exitX=0.422;exitY=-0.02;exitDx=0;exitDy=0;exitPerimeter=0;entryX=1.006;entryY=0.4;entryDx=0;entryDy=0;entryPerimeter=0;" edge="1" parent="KwywT63xRmN-frbp42h7-1" source="KwywT63xRmN-frbp42h7-11" target="KwywT63xRmN-frbp42h7-3">
          <mxGeometry width="50" height="50" relative="1" as="geometry">
            <mxPoint x="540" y="140" as="sourcePoint" />
            <mxPoint x="590" y="90" as="targetPoint" />
            <Array as="points">
              <mxPoint x="556" y="82" />
            </Array>
          </mxGeometry>
        </mxCell>
        <mxCell id="KwywT63xRmN-frbp42h7-35" value="" style="endArrow=none;html=1;rounded=0;entryX=1;entryY=0.5;entryDx=0;entryDy=0;exitX=0;exitY=0.5;exitDx=0;exitDy=0;" edge="1" parent="KwywT63xRmN-frbp42h7-1" source="KwywT63xRmN-frbp42h7-5" target="KwywT63xRmN-frbp42h7-12">
          <mxGeometry width="50" height="50" relative="1" as="geometry">
            <mxPoint x="660" y="330" as="sourcePoint" />
            <mxPoint x="710" y="280" as="targetPoint" />
            <Array as="points">
              <mxPoint x="690" y="280" />
              <mxPoint x="690" y="210" />
            </Array>
          </mxGeometry>
        </mxCell>
        <mxCell id="KwywT63xRmN-frbp42h7-36" value="" style="endArrow=none;html=1;rounded=0;exitX=0.5;exitY=0;exitDx=0;exitDy=0;entryX=0;entryY=0.5;entryDx=0;entryDy=0;" edge="1" parent="KwywT63xRmN-frbp42h7-1" source="KwywT63xRmN-frbp42h7-23" target="KwywT63xRmN-frbp42h7-9">
          <mxGeometry width="50" height="50" relative="1" as="geometry">
            <mxPoint x="140" y="330" as="sourcePoint" />
            <mxPoint x="190" y="280" as="targetPoint" />
            <Array as="points">
              <mxPoint x="137" y="280" />
            </Array>
          </mxGeometry>
        </mxCell>
        <mxCell id="KwywT63xRmN-frbp42h7-37" value="" style="endArrow=none;html=1;rounded=0;exitX=1;exitY=0.5;exitDx=0;exitDy=0;entryX=0;entryY=0.5;entryDx=0;entryDy=0;" edge="1" parent="KwywT63xRmN-frbp42h7-1" source="KwywT63xRmN-frbp42h7-24" target="KwywT63xRmN-frbp42h7-21">
          <mxGeometry width="50" height="50" relative="1" as="geometry">
            <mxPoint x="320" y="410" as="sourcePoint" />
            <mxPoint x="370" y="360" as="targetPoint" />
          </mxGeometry>
        </mxCell>
        <mxCell id="KwywT63xRmN-frbp42h7-38" value="" style="endArrow=none;html=1;rounded=0;entryX=1;entryY=1;entryDx=0;entryDy=0;exitX=0.343;exitY=-0.112;exitDx=0;exitDy=0;exitPerimeter=0;" edge="1" parent="KwywT63xRmN-frbp42h7-1" source="KwywT63xRmN-frbp42h7-20" target="KwywT63xRmN-frbp42h7-26">
          <mxGeometry width="50" height="50" relative="1" as="geometry">
            <mxPoint x="520" y="340" as="sourcePoint" />
            <mxPoint x="570" y="290" as="targetPoint" />
          </mxGeometry>
        </mxCell>
      </root>
    </mxGraphModel>
  </diagram>
</mxfile>
